# xmcd CD database file
#
# Track frame offsets:
#	150
#	30291
#	44481
#	79200
#	133106
#	149103
#	177405
#	203955
#	229773
#
# Disc length: 3549 seconds
#
# Revision: 0
# Processed by: cddbd v1.4PL0 Copyright (c) Steve Scherf et al.
# Submitted via: CDex 1.50
#
DISCID=820ddb09
DTITLE=Ilario Sylvaine, Preinfalk Gerald - Tango Nuevo
DYEAR=2003
DGENRE=Jazz
TTITLE0=Invierno Porteno
TTITLE1=Michaelangelo 70
TTITLE2=Café 1930
TTITLE3=Gran Tango
TTITLE4=Oblivión
TTITLE5=Milonga del Angel
TTITLE6=Night Club 1960
TTITLE7=Soledad
TTITLE8=Tangata
EXTD=YEAR: 2003
EXTT0=
EXTT1=
EXTT2=
EXTT3=
EXTT4=
EXTT5=
EXTT6=
EXTT7=
EXTT8=
PLAYORDER=
